<?xml version="1.0" encoding="UTF-8" standalone="no"?>
<!-- Generator: Adobe Illustrator 21.1.0, SVG Export Plug-In . SVG Version: 6.00 Build 0)  -->

<svg
   xmlns:dc="http://purl.org/dc/elements/1.1/"
   xmlns:cc="http://creativecommons.org/ns#"
   xmlns:rdf="http://www.w3.org/1999/02/22-rdf-syntax-ns#"
   xmlns:svg="http://www.w3.org/2000/svg"
   xmlns="http://www.w3.org/2000/svg"
   xmlns:sodipodi="http://sodipodi.sourceforge.net/DTD/sodipodi-0.dtd"
   xmlns:inkscape="http://www.inkscape.org/namespaces/inkscape"
   version="1.1"
   id="UI_Icons"
   x="0px"
   y="0px"
   viewBox="0 0 16 16"
   style="enable-background:new 0 0 16 16;"
   xml:space="preserve"
   sodipodi:docname="avatarf2f2f2.svg"
   inkscape:version="0.92.3 (2405546, 2018-03-11)"><metadata
   id="metadata15"><rdf:RDF><cc:Work
       rdf:about=""><dc:format>image/svg+xml</dc:format><dc:type
         rdf:resource="http://purl.org/dc/dcmitype/StillImage" /></cc:Work></rdf:RDF></metadata><defs
   id="defs13" /><sodipodi:namedview
   pagecolor="#ffffff"
   bordercolor="#666666"
   borderopacity="1"
   objecttolerance="10"
   gridtolerance="10"
   guidetolerance="10"
   inkscape:pageopacity="0"
   inkscape:pageshadow="2"
   inkscape:window-width="3840"
   inkscape:window-height="2035"
   id="namedview11"
   showgrid="false"
   inkscape:zoom="14.75"
   inkscape:cx="7.4915254"
   inkscape:cy="8"
   inkscape:window-x="1113"
   inkscape:window-y="-13"
   inkscape:window-maximized="1"
   inkscape:current-layer="UI_Icons" />
<style
   type="text/css"
   id="style2">
	.st0{fill:#0082F0;}
</style>
<title
   id="title4">avatar</title>
<path
   class="st0"
   d="M1,16h14c0-2.2-1.8-4-4-4H5C2.8,12,1,13.8,1,16z M5,13h6c1.3,0,2.4,0.8,2.8,2H2.2C2.6,13.8,3.7,13,5,13z"
   id="path6"
   style="fill:#f2f2f2;fill-opacity:1" />
<path
   class="st0"
   d="M7.7,1C5.7,1,4,2.7,4,4.7v2.5C4,9.3,5.7,11,7.7,11h0.5c2.1,0,3.7-1.7,3.7-3.7V4.7C12,2.7,10.3,1,8.3,1H7.7z   M11,4.7v2.5C11,8.8,9.8,10,8.3,10H7.7C6.2,10,5,8.8,5,7.3V4.7C5,3.2,6.2,2,7.7,2h0.5C9.8,2,11,3.2,11,4.7z"
   id="path8"
   style="fill:#f2f2f2;fill-opacity:1" />
</svg>