<svg id="Layer_1" data-name="Layer 1" xmlns="http://www.w3.org/2000/svg" viewBox="0 0 148.02 200"><defs><style>.cls-1{fill:#fafafa;}</style></defs><title>Artboard 1</title><path class="cls-1" d="M129.93,40.39,30.38,73.58c-8.78,2.93-14.07,2.4-18.52.17A19.37,19.37,0,0,1,2.11,62.51h0A19.37,19.37,0,0,1,3.17,47.68c2.22-4.45,6.15-8,14.92-11L117.64,3.52c8.78-2.93,14.07-2.4,18.52-.18a19.37,19.37,0,0,1,9.75,11.24h0a19.37,19.37,0,0,1-1.05,14.84C142.63,33.87,138.71,37.47,129.93,40.39Z"/><path class="cls-1" d="M129.93,101.84,30.38,135c-8.78,2.93-14.07,2.4-18.52.17A19.37,19.37,0,0,1,2.11,124h0a19.37,19.37,0,0,1,1.05-14.84c2.22-4.45,6.15-8,14.92-11L117.64,65c8.78-2.93,14.07-2.4,18.52-.18A19.37,19.37,0,0,1,145.91,76h0a19.37,19.37,0,0,1-1.05,14.84C142.63,95.32,138.71,98.92,129.93,101.84Z"/><path class="cls-1" d="M129.93,163.3,30.38,196.48c-8.78,2.93-14.07,2.4-18.52.17a19.37,19.37,0,0,1-9.75-11.24h0a19.37,19.37,0,0,1,1.05-14.84c2.22-4.45,6.15-8,14.92-11l99.55-33.18c8.78-2.93,14.07-2.4,18.52-.18a19.37,19.37,0,0,1,9.75,11.24h0a19.37,19.37,0,0,1-1.05,14.84C142.63,156.77,138.71,160.37,129.93,163.3Z"/></svg>